<svg width="65" height="65" viewBox="0 0 65 65" fill="none" xmlns="http://www.w3.org/2000/svg">
<rect x="1.93344" y="1.76611" width="61" height="61" rx="30.5" stroke="#FE6219" stroke-width="3"/>
<g clip-path="url(#clip0_4_87)">
<path d="M45.1209 31.3599V36.7974C45.1209 36.972 45.1008 37.1462 45.0607 37.3163L43.2482 45.0194C43.0075 46.0428 42.0942 46.7661 41.0428 46.7661H29.2616C28.9042 46.7661 28.5519 46.6816 28.2335 46.5194C27.915 46.3572 27.6394 46.1221 27.4292 45.8331L20.1794 35.8643C19.4435 34.8524 19.6672 33.4354 20.6791 32.6995C21.6911 31.9635 23.1081 32.1873 23.844 33.1992L25.6366 35.6641V20.0317C25.6366 18.7805 26.6509 17.7661 27.9022 17.7661C29.1535 17.7661 30.1678 18.7805 30.1678 20.0317V31.3599H30.6209V29.0942C30.6209 27.843 31.6353 26.8286 32.8866 26.8286C34.1379 26.8286 35.1522 27.843 35.1522 29.0942V31.3599H35.6053V30.0005C35.6053 28.7492 36.6196 27.7349 37.8709 27.7349C39.1222 27.7349 40.1366 28.7492 40.1366 30.0005V31.3599H40.5897C40.5897 30.1086 41.604 29.0942 42.8553 29.0942C44.1066 29.0942 45.1209 30.1086 45.1209 31.3599ZM30.6209 35.8911H30.1678V41.3286H30.6209V35.8911ZM35.6053 35.8911H35.1522V41.3286H35.6053V35.8911ZM40.5897 35.8911H40.1366V41.3286H40.5897V35.8911Z" fill="#FE6219"/>
</g>
<defs>
<clipPath id="clip0_4_87">
<rect width="29" height="29" fill="white" transform="translate(17.9334 17.7661)"/>
</clipPath>
</defs>
</svg>
