<svg width="65" height="65" viewBox="0 0 65 65" fill="none" xmlns="http://www.w3.org/2000/svg">
<rect x="2.15991" y="2.20605" width="61" height="61" rx="30.5" stroke="#FE6219" stroke-width="3"/>
<g clip-path="url(#clip0_29_476)">
<path d="M42.7363 23.7512L37.9841 18.9991C37.4744 18.4893 36.7833 18.2004 36.064 18.2004H24.5037C23.0027 18.2061 21.7849 19.4239 21.7849 20.9249V44.4874C21.7849 45.9883 23.0027 47.2061 24.5037 47.2061H40.8162C42.3171 47.2061 43.5349 45.9883 43.5349 44.4874V25.677C43.5349 24.9577 43.246 24.261 42.7363 23.7512ZM40.5953 25.4561H36.2849V21.1458L40.5953 25.4561ZM24.5037 44.4874V20.9249H33.5662V26.8155C33.5662 27.5688 34.1722 28.1749 34.9255 28.1749H40.8162V44.4874H24.5037Z" fill="#FE6219"/>
</g>
<defs>
<clipPath id="clip0_29_476">
<rect width="29" height="29" fill="white" transform="translate(18.1599 18.2061)"/>
</clipPath>
</defs>
</svg>
