<svg width="65" height="65" viewBox="0 0 65 65" fill="none" xmlns="http://www.w3.org/2000/svg">
<rect x="2.47998" y="2.20605" width="61" height="61" rx="30.5" stroke="#FE6219" stroke-width="3"/>
<g clip-path="url(#clip0_29_484)">
<path d="M39.3237 18.2061H26.6362C25.1353 18.2061 23.9175 19.4238 23.9175 20.9248V44.4873C23.9175 45.9883 25.1353 47.2061 26.6362 47.2061H39.3237C40.8247 47.2061 42.0425 45.9883 42.0425 44.4873V20.9248C42.0425 19.4238 40.8247 18.2061 39.3237 18.2061ZM32.98 45.3936C31.9774 45.3936 31.1675 44.5836 31.1675 43.5811C31.1675 42.5785 31.9774 41.7686 32.98 41.7686C33.9825 41.7686 34.7925 42.5785 34.7925 43.5811C34.7925 44.5836 33.9825 45.3936 32.98 45.3936ZM39.3237 39.2764C39.3237 39.6502 39.0179 39.9561 38.644 39.9561H27.3159C26.9421 39.9561 26.6362 39.6502 26.6362 39.2764V21.6045C26.6362 21.2307 26.9421 20.9248 27.3159 20.9248H38.644C39.0179 20.9248 39.3237 21.2307 39.3237 21.6045V39.2764Z" fill="#FE6219"/>
</g>
<defs>
<clipPath id="clip0_29_484">
<rect width="29" height="29" fill="white" transform="translate(18.48 18.2061)"/>
</clipPath>
</defs>
</svg>
