<svg width="65" height="65" viewBox="0 0 65 65" fill="none" xmlns="http://www.w3.org/2000/svg">
<rect x="1.58344" y="1.76611" width="61" height="61" rx="30.5" stroke="#FE6219" stroke-width="3"/>
<path d="M44.7709 22.0255V42.5124C44.7709 43.8888 43.6948 44.9593 42.3241 44.9593H21.8428C20.4891 44.9536 19.3959 43.9001 19.3959 42.5067V22.0255C19.3959 20.6604 20.4608 19.5786 21.8428 19.5786H42.3297C43.6891 19.5786 44.7709 20.6435 44.7709 22.0255ZM42.6582 42.5067V22.0255C42.6582 21.8556 42.511 21.697 42.3297 21.697H41.803L35.5555 25.9224L32.0834 23.096L28.617 25.9224L22.3696 21.6913H21.8428C21.6616 21.6913 21.5143 21.8499 21.5143 22.0198V42.5067C21.5143 42.6767 21.6616 42.8353 21.8428 42.8353H42.3297C42.511 42.8409 42.6582 42.6823 42.6582 42.5067ZM27.9034 28.3013V30.397H23.7403V28.3013H27.9034ZM27.9034 32.5153V34.628H23.7403V32.5153H27.9034ZM28.5321 24.1722L31.5907 21.697H24.8787L28.5321 24.1722ZM40.4266 28.3013V30.397H29.325V28.3013H40.4266ZM40.4266 32.5153V34.628H29.325V32.5153H40.4266ZM35.6348 24.1722L39.2881 21.697H32.5819L35.6348 24.1722ZM40.4266 36.7407V38.8534H34.7965V36.7407H40.4266Z" fill="#FE6219"/>
</svg>
