<svg width="65" height="65" viewBox="0 0 65 65" fill="none" xmlns="http://www.w3.org/2000/svg">
<rect x="2.25342" y="1.76611" width="61" height="61" rx="30.5" stroke="#FE6219" stroke-width="3"/>
<g clip-path="url(#clip0_4_95)">
<path d="M18.2534 41.1272C18.2534 42.4614 19.3359 43.5438 20.6701 43.5438H44.8368C46.171 43.5438 47.2534 42.4614 47.2534 41.1272V32.2661H18.2534V41.1272ZM27.9201 37.7036C27.9201 37.3713 28.192 37.0994 28.5243 37.0994H35.3715C35.7038 37.0994 35.9756 37.3713 35.9756 37.7036V39.7174C35.9756 40.0497 35.7038 40.3216 35.3715 40.3216H28.5243C28.192 40.3216 27.9201 40.0497 27.9201 39.7174V37.7036ZM21.4756 37.7036C21.4756 37.3713 21.7475 37.0994 22.0798 37.0994H25.7048C26.0371 37.0994 26.309 37.3713 26.309 37.7036V39.7174C26.309 40.0497 26.0371 40.3216 25.7048 40.3216H22.0798C21.7475 40.3216 21.4756 40.0497 21.4756 39.7174V37.7036ZM47.2534 23.4049V25.8216H18.2534V23.4049C18.2534 22.0707 19.3359 20.9883 20.6701 20.9883H44.8368C46.171 20.9883 47.2534 22.0707 47.2534 23.4049Z" fill="#FE6219"/>
</g>
<defs>
<clipPath id="clip0_4_95">
<rect width="29" height="29" fill="white" transform="translate(18.2534 17.7661)"/>
</clipPath>
</defs>
</svg>
