<svg width="65" height="65" viewBox="0 0 65 65" fill="none" xmlns="http://www.w3.org/2000/svg">
<rect x="1.80981" y="2.20605" width="61" height="61" rx="30.5" stroke="#FE6219" stroke-width="3"/>
<g clip-path="url(#clip0_29_492)">
<path d="M45.6015 23.0394H40.3654V21.0255C40.3654 20.3559 39.8267 19.8171 39.157 19.8171H25.4626C24.793 19.8171 24.2543 20.3559 24.2543 21.0255V23.0394H19.0181C18.3485 23.0394 17.8098 23.5781 17.8098 24.2477V27.0671C17.8098 28.8645 18.9426 30.7123 20.9263 32.1371C22.5122 33.28 24.4405 34.005 26.4645 34.2366C28.0454 36.8597 29.8931 37.9421 29.8931 37.9421V41.5671H27.4765C25.6992 41.5671 24.2543 42.6093 24.2543 44.3866V44.9908C24.2543 45.323 24.5261 45.5949 24.8584 45.5949H39.7612C40.0935 45.5949 40.3654 45.323 40.3654 44.9908V44.3866C40.3654 42.6093 38.9204 41.5671 37.1431 41.5671H34.7265V37.9421C34.7265 37.9421 36.5742 36.8597 38.1551 34.2366C40.1841 34.005 42.1124 33.28 43.6933 32.1371C45.672 30.7123 46.8098 28.8645 46.8098 27.0671V24.2477C46.8098 23.5781 46.2711 23.0394 45.6015 23.0394ZM22.8093 29.5241C21.5808 28.638 21.032 27.6512 21.032 27.0671V26.2616H24.2643C24.3147 27.9029 24.5563 29.3428 24.9088 30.6015C24.1485 30.3397 23.4386 29.9772 22.8093 29.5241ZM43.5876 27.0671C43.5876 27.8777 42.6964 28.8847 41.8103 29.5241C41.181 29.9772 40.4661 30.3397 39.7058 30.6015C40.0583 29.3428 40.2999 27.9029 40.3503 26.2616H43.5876V27.0671Z" fill="#FE6219"/>
</g>
<defs>
<clipPath id="clip0_29_492">
<rect width="29" height="29" fill="white" transform="translate(17.8098 18.2061)"/>
</clipPath>
</defs>
</svg>
