<svg width="28" height="28" viewBox="0 0 28 28" fill="none" xmlns="http://www.w3.org/2000/svg">
<path d="M21.5 5.25C20.8096 5.25 20.25 5.80965 20.25 6.5C20.25 7.19035 20.8096 7.75 21.5 7.75C22.1904 7.75 22.75 7.19035 22.75 6.5C22.75 5.80965 22.1904 5.25 21.5 5.25Z" fill="#D2D2D2"/>
<path fill-rule="evenodd" clip-rule="evenodd" d="M14 21.5C18.1421 21.5 21.5 18.1421 21.5 14C21.5 9.85786 18.1421 6.5 14 6.5C9.85786 6.5 6.5 9.85786 6.5 14C6.5 18.1421 9.85786 21.5 14 21.5ZM14 19C16.7614 19 19 16.7614 19 14C19 11.2386 16.7614 9 14 9C11.2386 9 9 11.2386 9 14C9 16.7614 11.2386 19 14 19Z" fill="#D2D2D2"/>
<path fill-rule="evenodd" clip-rule="evenodd" d="M1.06745 4.34508C0.25 5.94941 0.25 8.04961 0.25 12.25V15.75C0.25 19.9504 0.25 22.0506 1.06745 23.6549C1.7865 25.0661 2.93385 26.2135 4.34508 26.9325C5.94941 27.75 8.04961 27.75 12.25 27.75H15.75C19.9504 27.75 22.0506 27.75 23.6549 26.9325C25.0661 26.2135 26.2135 25.0661 26.9325 23.6549C27.75 22.0506 27.75 19.9504 27.75 15.75V12.25C27.75 8.04961 27.75 5.94941 26.9325 4.34508C26.2135 2.93385 25.0661 1.7865 23.6549 1.06745C22.0506 0.25 19.9504 0.25 15.75 0.25H12.25C8.04961 0.25 5.94941 0.25 4.34508 1.06745C2.93385 1.7865 1.7865 2.93385 1.06745 4.34508ZM15.75 2.75H12.25C10.1086 2.75 8.65281 2.75195 7.5276 2.84387C6.43155 2.93342 5.87105 3.09574 5.48005 3.29496C4.53924 3.77434 3.77434 4.53924 3.29496 5.48005C3.09574 5.87105 2.93342 6.43155 2.84387 7.5276C2.75195 8.65281 2.75 10.1086 2.75 12.25V15.75C2.75 17.8915 2.75195 19.3471 2.84387 20.4724C2.93342 21.5685 3.09574 22.129 3.29496 22.52C3.77434 23.4607 4.53924 24.2256 5.48005 24.705C5.87105 24.9042 6.43155 25.0666 7.5276 25.1561C8.65281 25.248 10.1086 25.25 12.25 25.25H15.75C17.8915 25.25 19.3471 25.248 20.4724 25.1561C21.5685 25.0666 22.129 24.9042 22.52 24.705C23.4607 24.2256 24.2256 23.4607 24.705 22.52C24.9042 22.129 25.0666 21.5685 25.1561 20.4724C25.248 19.3471 25.25 17.8915 25.25 15.75V12.25C25.25 10.1086 25.248 8.65281 25.1561 7.5276C25.0666 6.43155 24.9042 5.87105 24.705 5.48005C24.2256 4.53924 23.4607 3.77434 22.52 3.29496C22.129 3.09574 21.5685 2.93342 20.4724 2.84387C19.3471 2.75195 17.8915 2.75 15.75 2.75Z" fill="#D2D2D2"/>
</svg>
