<svg width="30" height="30" viewBox="0 0 30 30" fill="none" xmlns="http://www.w3.org/2000/svg">
<path fill-rule="evenodd" clip-rule="evenodd" d="M25.4986 4.35825C22.7177 1.55903 18.9321 -0.0104684 14.9865 5.25555e-05C6.79453 5.25555e-05 0.127553 6.66632 0.124703 14.8604C0.121204 17.4682 0.805495 20.0309 2.10855 22.2899L0 29.9915L7.87838 27.925C10.0572 29.1123 12.4989 29.7342 14.9801 29.7342H14.9865C23.177 29.7342 29.8446 23.0672 29.8475 14.8732C29.8602 10.9281 28.2942 7.14184 25.4986 4.35825ZM14.9865 27.221H14.9815C12.7692 27.222 10.5974 26.6281 8.69358 25.5015L8.24252 25.2343L3.56793 26.4606L4.8164 21.9L4.5221 21.4326C3.28662 19.4636 2.63297 17.1855 2.63658 14.8611C2.63658 8.05231 8.17767 2.50979 14.9915 2.50979C18.268 2.51167 21.4096 3.81509 23.7251 6.13328C26.0406 8.45146 27.3404 11.5946 27.3385 14.8711C27.3356 21.682 21.7945 27.221 14.9865 27.221ZM21.7617 17.9694C21.3905 17.7834 19.5649 16.8856 19.2242 16.758C18.8836 16.6305 18.6364 16.572 18.3891 16.944C18.1419 17.316 17.43 18.1519 17.2134 18.3999C16.9967 18.6478 16.7801 18.6784 16.4087 18.4925C16.0375 18.3065 14.8411 17.9145 13.4224 16.6498C12.3185 15.6649 11.5696 14.4492 11.3558 14.0772C11.142 13.7052 11.333 13.5071 11.519 13.319C11.6857 13.153 11.8903 12.8857 12.0755 12.6685C12.2608 12.4511 12.3235 12.2972 12.4467 12.0492C12.5701 11.8012 12.5087 11.5846 12.4161 11.3986C12.3235 11.2126 11.5803 9.38485 11.271 8.64163C10.9696 7.91763 10.6639 8.01525 10.4359 8.00029C10.2221 7.9896 9.97126 7.98746 9.72328 7.98746C9.34276 7.99741 8.9837 8.16584 8.73278 8.45208C8.39287 8.82404 7.43373 9.7219 7.43373 11.5497C7.43373 13.3775 8.76413 15.1432 8.94941 15.3912C9.13468 15.6392 11.5682 19.3896 15.2915 20.9986C15.983 21.2969 16.6896 21.5585 17.4086 21.7825C18.2979 22.0675 19.1074 22.0255 19.7472 21.93C20.4599 21.8231 21.9442 21.0314 22.2541 20.1641C22.5641 19.297 22.5635 18.553 22.468 18.3984C22.3725 18.2438 22.133 18.1582 21.7617 17.9722V17.9694Z" fill="#D2D2D2"/>
</svg>
