<svg width="20" height="16" viewBox="0 0 20 16" fill="none" xmlns="http://www.w3.org/2000/svg">
<path d="M19.5875 3.17503C19.4764 2.74663 19.2535 2.35541 18.9416 2.04136C18.6298 1.72731 18.2401 1.50168 17.8125 1.38751C15.22 1.08175 12.6104 0.943963 10 0.975013C7.38969 0.943963 4.78007 1.08175 2.18752 1.38751C1.75992 1.50168 1.37028 1.72731 1.05843 2.04136C0.746572 2.35541 0.523684 2.74663 0.412522 3.17503C0.128534 4.76745 -0.00954054 6.3825 2.1963e-05 8C-0.0100155 9.62588 0.128059 11.2493 0.412522 12.85C0.529447 13.2715 0.754897 13.6549 1.06637 13.962C1.37783 14.2691 1.76442 14.4891 2.18752 14.6C4.78007 14.9058 7.38969 15.0436 10 15.0125C12.6104 15.0436 15.22 14.9058 17.8125 14.6C18.2356 14.4891 18.6223 14.2691 18.9336 13.962C19.2451 13.6549 19.4706 13.2715 19.5875 12.85C19.872 11.2493 20.01 9.62588 20 8C20.0096 6.3825 19.8715 4.76745 19.5875 3.17503ZM7.95001 10.9875V5.03751L13.1875 8L7.95001 10.975V10.9875Z" fill="#D2D2D2"/>
</svg>
